<?xml version="1.0" encoding="UTF-8" standalone="no"?>
<!DOCTYPE svg PUBLIC "-//W3C//DTD SVG 1.1//EN" "http://www.w3.org/Graphics/SVG/1.1/DTD/svg11.dtd">
<svg width="100%" height="100%" viewBox="0 0 900 560" version="1.1" xmlns="http://www.w3.org/2000/svg" xmlns:xlink="http://www.w3.org/1999/xlink" xml:space="preserve" xmlns:serif="http://www.serif.com/" style="fill-rule:evenodd;clip-rule:evenodd;">
    <g transform="matrix(1,0,0,1,450,210)">
        <g transform="matrix(1,0,0,1,-450,-210)">
            <g id="tumor-cell">
                <g transform="matrix(1,0,0,0.681137,0,7.015)">
                    <path d="M192,36.681L192,357.319C192,365.422 187.519,372 182,372L20,372C14.481,372 10,365.422 10,357.319L10,36.681C10,28.578 14.481,22 20,22L182,22C187.519,22 192,28.578 192,36.681Z" style="fill:rgb(250,250,250);stroke:rgb(204,204,204);stroke-width:1.5px;stroke-dasharray:7,4;"/>
                </g>
                <g transform="matrix(1,0,0,1,100.917,42)">
                    <text x="-36.192px" y="0px" style="font-family:'ArialMT', 'Arial', sans-serif;font-size:11px;fill:rgb(18,0,0);">T<tspan x="-29.307px -21.199px -11.871px -3.149px 4.959px 8.181px 16.289px 23.791px 30.074px " y="0px 0px 0px 0px 0px 0px 0px 0px 0px ">UMOR CELL</tspan></text>
                </g>
                <g id="canonical-transcripts">
                    <path d="M180,57L180,77C180,79.76 177.76,82 175,82L27,82C24.24,82 22,79.76 22,77L22,57C22,54.24 24.24,52 27,52L175,52C177.76,52 180,54.24 180,57Z" style="fill:rgb(234,245,234);stroke:rgb(78,154,78);stroke-width:1px;"/>
                    <g transform="matrix(1,0,0,1,101,71)">
                        <text x="-50.134px" y="0px" style="font-family:'ArialMT', 'Arial', sans-serif;font-size:11px;fill:rgb(45,122,45);">canonical transcripts</text>
                    </g>
                </g>
                <g transform="matrix(1,0,0,1,101,100)">
                    <text x="-36.133px" y="0px" style="font-family:'Arial-ItalicMT', 'Arial', sans-serif;font-style:italic;font-size:10px;">aberrant events:</text>
                </g>
                <g id="gene-fusions">
                    <path d="M180,113L180,131C180,133.76 177.76,136 175,136L27,136C24.24,136 22,133.76 22,131L22,113C22,110.24 24.24,108 27,108L175,108C177.76,108 180,110.24 180,113Z" style="fill:rgb(255,243,230);stroke:rgb(208,120,48);stroke-width:1px;"/>
                    <g transform="matrix(1,0,0,1,101,126)">
                        <text x="-55.448px" y="0px" style="font-family:'ArialMT', 'Arial', sans-serif;font-size:10.5px;fill:rgb(154,74,8);">gene fusions (e.g. <tspan x="30.362px 37.365px " y="0px 0px ">AM</tspan>L)</text>
                    </g>
                </g>
                <g id="transposable-elements">
                    <path d="M180,149L180,167C180,169.76 177.76,172 175,172L27,172C24.24,172 22,169.76 22,167L22,149C22,146.24 24.24,144 27,144L175,144C177.76,144 180,146.24 180,149Z" style="fill:rgb(255,243,230);stroke:rgb(208,120,48);stroke-width:1px;"/>
                    <g transform="matrix(1,0,0,1,101,162)">
                        <g transform="matrix(10.5,0,0,10.5,73.7281,0)">
                        </g>
                        <text x="-73.728px" y="0px" style="font-family:'ArialMT', 'Arial', sans-serif;font-size:10.5px;fill:rgb(154,74,8);">transposable elements (ER<tspan x="52.728px 59.732px " y="0px 0px ">V…</tspan>)</text>
                    </g>
                </g>
                <g id="viral-integration">
                    <path d="M180,185L180,203C180,205.76 177.76,208 175,208L27,208C24.24,208 22,205.76 22,203L22,185C22,182.24 24.24,180 27,180L175,180C177.76,180 180,182.24 180,185Z" style="fill:rgb(255,243,230);stroke:rgb(208,120,48);stroke-width:1px;"/>
                    <g transform="matrix(1,0,0,1,101,198)">
                        <text x="-55.245px" y="0px" style="font-family:'ArialMT', 'Arial', sans-serif;font-size:10.5px;fill:rgb(154,74,8);">viral integration (HPV<tspan x="42.997px 45.914px " y="0px 0px ">..</tspan>.)</text>
                    </g>
                </g>
                <g id="structural-variants">
                    <path d="M180,221L180,239C180,241.76 177.76,244 175,244L27,244C24.24,244 22,241.76 22,239L22,221C22,218.24 24.24,216 27,216L175,216C177.76,216 180,218.24 180,221Z" style="fill:rgb(255,243,230);stroke:rgb(208,120,48);stroke-width:1px;"/>
                    <g transform="matrix(1,0,0,1,101,234)">
                        <text x="-54.856px" y="0px" style="font-family:'ArialMT', 'Arial', sans-serif;font-size:10.5px;fill:rgb(154,74,8);">other structural variants</text>
                    </g>
                </g>
            </g>
            <path d="M192,197L246,197" style="fill:none;fill-rule:nonzero;stroke:rgb(85,85,85);stroke-width:2px;"/>
            <g id="rnaseq-box">
                <path d="M370,175L370,219C370,222.863 366.863,226 363,226L255,226C251.137,226 248,222.863 248,219L248,175C248,171.137 251.137,168 255,168L363,168C366.863,168 370,171.137 370,175Z" style="fill:rgb(228,236,255);stroke:rgb(68,102,187);stroke-width:1.5px;"/>
                <g transform="matrix(1,0,0,1,309,191)">
                    <text x="-27.447px" y="0px" style="font-family:'Arial-BoldMT', 'Arial', sans-serif;font-weight:700;font-size:13px;fill:rgb(34,68,170);">RNA-seq</text>
                </g>
                <g transform="matrix(1,0,0,1,309,210)">
                    <text x="-30.288px" y="0px" style="font-family:'ArialMT', 'Arial', sans-serif;font-size:10px;fill:rgb(102,136,204);">transcriptome</text>
                </g>
            </g>
            <path d="M370,197L422,197" style="fill:none;fill-rule:nonzero;stroke:rgb(85,85,85);stroke-width:2px;"/>
            <g id="reference-alignment">
                <path d="M568,173L568,221C568,224.863 564.863,228 561,228L431,228C427.137,228 424,224.863 424,221L424,173C424,169.137 427.137,166 431,166L561,166C564.863,166 568,169.137 568,173Z" style="fill:rgb(240,240,240);stroke:rgb(153,153,153);stroke-width:1.5px;"/>
                <g transform="matrix(1,0,0,1,496,190)">
                    <text x="-29.016px" y="0px" style="font-family:'Arial-BoldMT', 'Arial', sans-serif;font-weight:700;font-size:12px;fill:rgb(51,51,51);">Reference</text>
                </g>
                <g transform="matrix(1,0,0,1,496,207)">
                    <text x="-26.681px" y="0px" style="font-family:'ArialMT', 'Arial', sans-serif;font-size:12px;fill:rgb(51,51,51);">Alignment</text>
                </g>
                <g transform="matrix(1,0,0,1,496,221)">
                    <text x="-31.269px" y="0px" style="font-family:'ArialMT', 'Arial', sans-serif;font-size:9px;fill:rgb(187,187,187);">hg38 / GRCh38</text>
                </g>
            </g>
            <path d="M496,166L496,108L590,108" style="fill:none;fill-rule:nonzero;stroke:rgb(78,154,78);stroke-width:2px;"/>
            <g transform="matrix(1,0,0,1,538,98)">
                <text x="-40.298px" y="0px" style="font-family:'Arial-ItalicMT', 'Arial', sans-serif;font-style:italic;font-size:10px;fill:rgb(78,154,78);">maps to reference</text>
            </g>
            <path d="M496,228L496,296L590,296" style="fill:none;fill-rule:nonzero;stroke:rgb(204,68,68);stroke-width:2px;"/>
            <g transform="matrix(1,0,0,1,538,288)">
                <text x="-26.404px" y="0px" style="font-family:'Arial-ItalicMT', 'Arial', sans-serif;font-style:italic;font-size:10px;fill:rgb(204,68,68);">fails to align</text>
            </g>
            <g id="canonical-pass">
                <path d="M818,79L818,137C818,140.863 814.863,144 811,144L597,144C593.137,144 590,140.863 590,137L590,79C590,75.137 593.137,72 597,72L811,72C814.863,72 818,75.137 818,79Z" style="fill:rgb(234,245,234);stroke:rgb(78,154,78);stroke-width:1.5px;"/>
                <g transform="matrix(1,0,0,1,704,96)">
                    <text x="-70.072px" y="0px" style="font-family:'MS-UIGothic', 'MS UI Gothic', sans-serif;font-size:13px;fill:rgb(45,122,45);">✓</text>
                    <text x="-49.848px" y="0px" style="font-family:'Arial-BoldMT', 'Arial', sans-serif;font-weight:700;font-size:13px;fill:rgb(45,122,45);">Canonical Peptides</text>
                </g>
                <g transform="matrix(1,0,0,1,704,114)">
                    <text x="-64.219px" y="0px" style="font-family:'ArialMT', 'Arial', sans-serif;font-size:10px;fill:rgb(90,138,90);">standard neoantigen pipeline</text>
                </g>
                <g transform="matrix(1,0,0,1,704,130)">
                    <g transform="matrix(9,0,0,9,22.7483,0)">
                    </g>
                    <g transform="matrix(9,0,0,9,25.2488,0)">
                    </g>
                    <text x="-68.276px" y="0px" style="font-family:'ArialMT', 'Arial', sans-serif;font-size:9px;fill:rgb(170,170,170);">minority of tumor-speciﬁc antigens</text>
                </g>
            </g>
            <g id="noncanonical-discard">
                <path d="M850,277L850,365C850,368.863 846.863,372 843,372L597,372C593.137,372 590,368.863 590,365L590,277C590,273.137 593.137,270 597,270L843,270C846.863,270 850,273.137 850,277Z" style="fill:rgb(253,234,234);stroke:rgb(204,68,68);stroke-width:2px;"/>
                <g transform="matrix(1,0,0,1,720,296)">
                    <text x="-52.503px" y="0px" style="font-family:'MS-UIGothic', 'MS UI Gothic', sans-serif;font-size:14px;fill:rgb(204,34,34);">✗</text>
                    <text x="-30.724px" y="0px" style="font-family:'Arial-BoldMT', 'Arial', sans-serif;font-weight:700;font-size:14px;fill:rgb(204,34,34);">DISCARDED</text>
                </g>
                <g transform="matrix(1,0,0,1,720,316)">
                    <text x="-49.121px" y="0px" style="font-family:'ArialMT', 'Arial', sans-serif;font-size:11px;fill:rgb(204,68,68);">non-canonical <tspan x="22.228px 28.948px " y="0px 0px ">TS</tspan>As</text>
                </g>
                <g transform="matrix(1,0,0,1,720,334)">
                    <g transform="matrix(10,0,0,10,7.62939,0)">
                    </g>
                    <g transform="matrix(10,0,0,10,10.4077,0)">
                    </g>
                    <g transform="matrix(10,0,0,10,93.5083,0)">
                    </g>
                    <text x="-93.508px" y="0px" style="font-family:'ArialMT', 'Arial', sans-serif;font-size:10px;fill:rgb(170,51,51);">majority of tumor-speciﬁc antigens (~90%)</text>
                </g>
                <g transform="matrix(1,0,0,1,720,350)">
                    <text x="-73.288px" y="0px" style="font-family:'ArialMT', 'Arial', sans-serif;font-size:9px;fill:rgb(187,187,187);">including key immunotherapy targets</text>
                </g>
            </g>
        </g>
    </g>
</svg>
